<svg width="211" height="137" viewBox="0 0 211 137" fill="none" xmlns="http://www.w3.org/2000/svg">
<path fill-rule="evenodd" clip-rule="evenodd" d="M211 0V137H201V0H211Z" fill="black"/>
<path d="M29.6001 125.45L15.0501 118.25L23.4501 92.4501H55.4001L65.1501 121.4L55.2501 125.45V128H106.55V125.45L97.4001 119.3L62.9001 19.8501H44.6001L11.9001 118.1L0.350098 125.45V128H29.6001V125.45ZM38.9001 45.8001H39.6501L54.2001 89.0001H24.6501L38.9001 45.8001Z" fill="black"/>
<path d="M135.456 83.1501C118.056 86.4501 109.506 93.9501 109.506 107.75C109.506 122 118.506 130.25 131.706 130.25C142.056 130.25 148.656 126.65 153.306 120.35H154.056C156.456 126.35 161.706 129.95 172.656 129.95C179.556 129.95 185.856 128.15 189.006 126.2V124.1L181.056 122V68.6001C181.056 50.0001 168.156 43.8501 145.956 43.8501C133.056 43.8501 123.306 46.5501 115.506 48.9501L114.906 74.4501H117.456L137.706 47.0001C138.756 46.8501 139.656 46.7001 140.706 46.7001C149.856 46.7001 153.456 52.1001 153.456 68.7501V79.7001L135.456 83.1501ZM146.556 119.45C140.406 119.45 136.056 116 136.056 102.65C136.056 90.3501 139.206 84.8001 147.906 84.0501L153.456 83.6001V116.6C151.956 118.4 150.006 119.45 146.556 119.45Z" fill="black"/>
</svg>
