<svg width="170" height="162" viewBox="0 0 170 162" fill="none" xmlns="http://www.w3.org/2000/svg">
<path d="M88.0189 83.3996L87.1193 83.8487L86.2029 84.3064L85 84.9071L83.7971 84.3064L82.8807 83.8487L81.5229 83.1707V81V80.0848V79.2868L82.8806 78.6089L83.797 78.1513L85 77.5506L86.203 78.1513L87.1194 78.6089L88.0189 79.058V80.0848V81V83.3996ZM94.3341 86.3266L162.194 98.8321L141.047 136.224L94.3341 86.3266ZM28.5445 136.214L7.75099 98.8347L75.7462 86.2292L28.5445 136.214ZM85 93.9661L107.879 157H62.1206L85 93.9661ZM74.2505 74.5972L7.77171 62.6704L28.5163 25.3786L74.2505 74.5972ZM95.8077 74.5085L141.075 25.3684L162.173 62.6729L95.8077 74.5085ZM85 68.4698L62.1054 5H107.895L85 68.4698Z" fill="black" stroke="black" stroke-width="10"/>
</svg>
