<svg width="169" height="169" viewBox="0 0 169 169" fill="none" xmlns="http://www.w3.org/2000/svg">
<path d="M40.0156 83.6021C40.0156 50.4633 62.87 37.4037 87.3568 37.4037C98.9472 37.4037 109.721 39.0361 115.598 41.4848L116.578 66.2981H113.15L95.6823 41.8113C94.0498 41.3216 92.2541 41.1583 89.6422 41.1583C79.0313 41.1583 71.6852 52.5855 71.6852 82.1329C71.6852 114.619 77.8885 125.883 89.8055 125.883C91.7644 125.883 93.8866 125.719 95.3558 125.393L113.966 99.4369H117.394L116.088 124.25C109.885 127.189 99.4369 129.637 85.0713 129.637C59.9316 129.801 40.0156 115.761 40.0156 83.6021Z" fill="black"/>
<circle cx="84.5" cy="84.5" r="79.5" stroke="black" stroke-width="10"/>
</svg>
