<svg width="68" height="180" viewBox="0 0 68 180" fill="none" xmlns="http://www.w3.org/2000/svg">
<path d="M13.2933 149.437C13.2933 138.144 23.0292 115.183 23.0292 107.655C23.0292 98.9971 18.9102 94.1037 0 91.0924V87.7047C18.9102 84.6934 23.0292 79.9882 23.0292 71.1424C23.0292 63.2377 13.2933 40.841 13.2933 29.3604C13.2933 10.916 26.2121 1.12924 67.0281 0V3.38773C50.1774 5.64622 46.0584 10.5396 46.0584 19.1972C46.0584 26.7255 50.1774 57.0269 50.1774 65.1198C50.1774 78.6707 38.9437 85.0698 10.8593 89.0221V89.9632C38.7565 93.9155 50.1774 100.503 50.1774 114.242C50.1774 121.958 46.0584 152.26 46.0584 159.976C46.0584 168.634 50.1774 173.904 67.0281 175.974V179.174C26.2121 177.856 13.2933 167.881 13.2933 149.437Z" fill="black"/>
</svg>
