<svg width="347" height="165" viewBox="0 0 347 165" fill="none" xmlns="http://www.w3.org/2000/svg">
<path d="M33.7459 4.91996C44.3059 4.91996 51.7859 13.28 51.7859 33.08C51.7859 49.36 48.9259 59.04 39.2459 69.82C32.2059 77.52 27.8059 84.12 27.8059 93.58C27.8059 100.4 30.2259 105.9 32.8659 109.42H37.2659C36.6059 106.34 36.1659 104.58 36.1659 101.94C36.1659 94.24 41.0059 88.96 59.7059 80.38C82.3659 70.04 94.9059 58.6 94.9059 40.56C94.9059 11.74 72.2459 0.959961 40.5659 0.959961C25.3859 0.959961 10.6459 3.59997 0.525937 6.89996L0.0859375 51.12H3.82594L33.3059 4.91996H33.7459ZM37.4859 164.64C50.4659 164.64 59.4859 154.52 59.4859 142.64C59.4859 130.76 50.4659 120.86 37.4859 120.86C24.7259 120.86 15.7059 130.76 15.7059 142.64C15.7059 154.52 24.7259 164.64 37.4859 164.64Z" fill="black"/>
<path d="M159.73 4.91996C170.29 4.91996 177.77 13.28 177.77 33.08C177.77 49.36 174.91 59.04 165.23 69.82C158.19 77.52 153.79 84.12 153.79 93.58C153.79 100.4 156.21 105.9 158.85 109.42H163.25C162.59 106.34 162.15 104.58 162.15 101.94C162.15 94.24 166.99 88.96 185.69 80.38C208.35 70.04 220.89 58.6 220.89 40.56C220.89 11.74 198.23 0.959961 166.55 0.959961C151.37 0.959961 136.63 3.59997 126.51 6.89996L126.07 51.12H129.81L159.29 4.91996H159.73ZM163.47 164.64C176.45 164.64 185.47 154.52 185.47 142.64C185.47 130.76 176.45 120.86 163.47 120.86C150.71 120.86 141.69 130.76 141.69 142.64C141.69 154.52 150.71 164.64 163.47 164.64Z" fill="black"/>
<path d="M285.715 4.91996C296.275 4.91996 303.755 13.28 303.755 33.08C303.755 49.36 300.895 59.04 291.215 69.82C284.175 77.52 279.775 84.12 279.775 93.58C279.775 100.4 282.195 105.9 284.835 109.42H289.235C288.575 106.34 288.135 104.58 288.135 101.94C288.135 94.24 292.975 88.96 311.675 80.38C334.335 70.04 346.875 58.6 346.875 40.56C346.875 11.74 324.215 0.959961 292.535 0.959961C277.355 0.959961 262.615 3.59997 252.495 6.89996L252.055 51.12H255.795L285.275 4.91996H285.715ZM289.455 164.64C302.435 164.64 311.455 154.52 311.455 142.64C311.455 130.76 302.435 120.86 289.455 120.86C276.695 120.86 267.675 130.76 267.675 142.64C267.675 154.52 276.695 164.64 289.455 164.64Z" fill="black"/>
</svg>
