<svg width="208" height="144" viewBox="0 0 208 144" fill="none" xmlns="http://www.w3.org/2000/svg">
<path d="M40.7406 31.7342C57.9281 31.7342 70.3412 38.113 86.4147 48.4784C102.647 59.0033 118.721 65.8605 137.977 67.2957L138.454 66.3389C122.54 57.4086 117.129 39.3887 117.129 24.2392C117.129 13.5548 119.516 4.78405 123.336 0L126.2 0C140.842 34.7641 181.423 63.1495 208 70.4851V73.6744C181.423 80.8505 140.682 109.236 126.2 144H123.336C119.516 139.216 117.129 130.445 117.129 119.761C117.129 104.611 122.54 86.5914 138.295 77.8206L137.818 76.8638C118.721 78.299 102.488 84.9967 86.2555 95.5216C70.023 105.887 57.7689 112.266 40.5815 112.266C16.5509 112.266 0 93.4485 0 72.0797C0 50.711 16.5509 31.7342 40.7406 31.7342Z" fill="black"/>
</svg>
